# Blender 4.3.2
# www.blender.org
mtllib ShadowRoom.mtl
o Cube
v -22.208296 11.651107 21.084091
v -22.208296 -11.651107 21.084091
v -22.208296 11.651107 -21.084091
v -22.208296 -11.651107 -21.084091
v -19.305079 11.651107 21.084091
v -19.305079 -11.651107 21.084091
v -19.305079 11.651107 -21.084091
v -19.305079 -11.651107 -21.084091
vn -0.9900 0.1233 0.0682
vn -0.9900 -0.1234 0.0682
vn -0.9900 0.1234 -0.0682
vn -0.9900 -0.1233 -0.0682
vn 0.9900 0.1234 0.0682
vn 0.9900 -0.1233 0.0682
vn 0.9900 0.1233 -0.0682
vn 0.9900 -0.1234 -0.0682
vt 0.875000 0.500000
vt 0.625000 0.750000
vt 0.625000 0.500000
vt 0.375000 1.000000
vt 0.375000 0.750000
vt 0.625000 0.000000
vt 0.375000 0.250000
vt 0.375000 0.000000
vt 0.375000 0.500000
vt 0.125000 0.750000
vt 0.125000 0.500000
vt 0.625000 0.250000
vt 0.875000 0.750000
vt 0.625000 1.000000
s 1
usemtl Material
f 5/1/5 3/2/3 1/3/1
f 3/2/3 8/4/8 4/5/4
f 7/6/7 6/7/6 8/8/8
f 2/9/2 8/10/8 6/11/6
f 1/3/1 4/5/4 2/9/2
f 5/12/5 2/9/2 6/7/6
f 5/1/5 7/13/7 3/2/3
f 3/2/3 7/14/7 8/4/8
f 7/6/7 5/12/5 6/7/6
f 2/9/2 4/5/4 8/10/8
f 1/3/1 3/2/3 4/5/4
f 5/12/5 1/3/1 2/9/2
o Cube.001
v 21.640400 11.651107 21.084091
v 21.640400 -11.651107 21.084091
v 21.640400 11.651107 -21.084091
v 21.640400 -11.651107 -21.084091
v 24.543617 11.651107 21.084091
v 24.543617 -11.651107 21.084091
v 24.543617 11.651107 -21.084091
v 24.543617 -11.651107 -21.084091
vn -0.9900 0.1233 0.0682
vn -0.9900 -0.1234 0.0682
vn -0.9900 0.1234 -0.0682
vn -0.9900 -0.1233 -0.0682
vn 0.9900 0.1234 0.0682
vn 0.9900 -0.1233 0.0682
vn 0.9900 0.1233 -0.0682
vn 0.9900 -0.1234 -0.0682
vt 0.875000 0.500000
vt 0.625000 0.750000
vt 0.625000 0.500000
vt 0.375000 1.000000
vt 0.375000 0.750000
vt 0.625000 0.000000
vt 0.375000 0.250000
vt 0.375000 0.000000
vt 0.375000 0.500000
vt 0.125000 0.750000
vt 0.125000 0.500000
vt 0.625000 0.250000
vt 0.875000 0.750000
vt 0.625000 1.000000
s 1
usemtl Material
f 13/15/13 11/16/11 9/17/9
f 11/16/11 16/18/16 12/19/12
f 15/20/15 14/21/14 16/22/16
f 10/23/10 16/24/16 14/25/14
f 9/17/9 12/19/12 10/23/10
f 13/26/13 10/23/10 14/21/14
f 13/15/13 15/27/15 11/16/11
f 11/16/11 15/28/15 16/18/16
f 15/20/15 13/26/13 14/21/14
f 10/23/10 12/19/12 16/24/16
f 9/17/9 11/16/11 12/19/12
f 13/26/13 9/17/9 10/23/10
o Cube.002
v -21.972076 9.580408 21.084091
v 24.475231 10.624954 21.084091
v -21.972076 9.580408 -21.084091
v 24.475231 10.624954 -21.084091
v -22.037399 12.485075 21.084091
v 24.409908 13.529621 21.084091
v -22.037399 12.485075 -21.084091
v 24.409908 13.529621 -21.084091
vn -0.0399 -0.9968 0.0686
vn 0.0846 -0.9940 0.0686
vn -0.0399 -0.9968 -0.0686
vn 0.0846 -0.9940 -0.0686
vn -0.0846 0.9940 0.0686
vn 0.0399 0.9968 0.0686
vn -0.0846 0.9940 -0.0686
vn 0.0399 0.9968 -0.0686
vt 0.875000 0.500000
vt 0.625000 0.750000
vt 0.625000 0.500000
vt 0.375000 1.000000
vt 0.375000 0.750000
vt 0.625000 0.000000
vt 0.375000 0.250000
vt 0.375000 0.000000
vt 0.375000 0.500000
vt 0.125000 0.750000
vt 0.125000 0.500000
vt 0.625000 0.250000
vt 0.875000 0.750000
vt 0.625000 1.000000
s 1
usemtl Material
f 21/29/21 19/30/19 17/31/17
f 19/30/19 24/32/24 20/33/20
f 23/34/23 22/35/22 24/36/24
f 18/37/18 24/38/24 22/39/22
f 17/31/17 20/33/20 18/37/18
f 21/40/21 18/37/18 22/35/22
f 21/29/21 23/41/23 19/30/19
f 19/30/19 23/42/23 24/32/24
f 23/34/23 21/40/21 22/35/22
f 18/37/18 20/33/20 24/38/24
f 17/31/17 19/30/19 20/33/20
f 21/40/21 17/31/17 18/37/18
o Cube.003
v -21.972076 -12.945299 21.084091
v 24.475231 -11.900753 21.084091
v -21.972076 -12.945299 -21.084091
v 24.475231 -11.900753 -21.084091
v -22.037399 -10.040632 21.084091
v 24.409908 -8.996086 21.084091
v -22.037399 -10.040632 -21.084091
v 24.409908 -8.996086 -21.084091
vn -0.0399 -0.9968 0.0686
vn 0.0846 -0.9940 0.0686
vn -0.0399 -0.9968 -0.0686
vn 0.0846 -0.9940 -0.0686
vn -0.0846 0.9940 0.0686
vn 0.0399 0.9968 0.0686
vn -0.0846 0.9940 -0.0686
vn 0.0399 0.9968 -0.0686
vt 0.875000 0.500000
vt 0.625000 0.750000
vt 0.625000 0.500000
vt 0.375000 1.000000
vt 0.375000 0.750000
vt 0.625000 0.000000
vt 0.375000 0.250000
vt 0.375000 0.000000
vt 0.375000 0.500000
vt 0.125000 0.750000
vt 0.125000 0.500000
vt 0.625000 0.250000
vt 0.875000 0.750000
vt 0.625000 1.000000
s 1
usemtl Material
f 29/43/29 27/44/27 25/45/25
f 27/44/27 32/46/32 28/47/28
f 31/48/31 30/49/30 32/50/32
f 26/51/26 32/52/32 30/53/30
f 25/45/25 28/47/28 26/51/26
f 29/54/29 26/51/26 30/49/30
f 29/43/29 31/55/31 27/44/27
f 27/44/27 31/56/31 32/46/32
f 31/48/31 29/54/29 30/49/30
f 26/51/26 28/47/28 32/52/32
f 25/45/25 27/44/27 28/47/28
f 29/54/29 25/45/25 26/51/26
